<svg xmlns="http://www.w3.org/2000/svg" xmlns:xlink="http://www.w3.org/1999/xlink" viewBox="0 0 500 500"><defs><clipPath id="freepik--clip-path--inject-66"><path d="M91.87,316.05l34.93,8.75V326l2.94.08v-1.38l25.83-4.08s1.13-.26.17,1-17.59,15.78-17.59,15.78l-18.46,1.9-28-6.15Z" style="fill:#FF4656;stroke:#263238;stroke-linecap:round;stroke-linejoin:round"></path></clipPath><clipPath id="freepik--clip-path-2--inject-66"><path d="M109,416.69l15.56-10.16-.21-.81,1.43-.42.23.93,13.28-.4s.59,0-.09-.72S128,396.62,128,396.62l-9.33,1-12.62,7.55Z" style="fill:#FF4656;stroke:#263238;stroke-linecap:round;stroke-linejoin:round"></path></clipPath><clipPath id="freepik--clip-path-3--inject-66"><polygon points="358.82 305.55 382.02 335.55 323.5 352.54 330.3 316.48 358.82 305.55" style="fill:#fff;stroke:#263238;stroke-linecap:round;stroke-linejoin:round"></polygon></clipPath><clipPath id="freepik--clip-path-4--inject-66"><polygon points="358.22 299.71 341.24 335.11 302.07 348.41 322.17 316.63 358.22 299.71" style="fill:#FF4656;stroke:#263238;stroke-linecap:round;stroke-linejoin:round"></polygon></clipPath><clipPath id="freepik--clip-path-5--inject-66"><polygon points="227.77 396.45 251.71 360.64 193.82 357.42 199.63 392.2 227.77 396.45" style="fill:#fff;stroke:#263238;stroke-linecap:round;stroke-linejoin:round"></polygon></clipPath><clipPath id="freepik--clip-path-6--inject-66"><polygon points="227.02 402.48 211.03 370.8 172.34 366.7 191.53 393.99 227.02 402.48" style="fill:#FF4656;stroke:#263238;stroke-linecap:round;stroke-linejoin:round"></polygon></clipPath><clipPath id="freepik--clip-path-7--inject-66"><path d="M145.33,190.83l145.94,36.58v5.16l12.53.37V227l109.83-17.32s4.79-1.11.74,4.42-74.82,67.08-74.82,67.08l-78.5,8.11L142,263.16l.71-70.31A2.1,2.1,0,0,1,145.33,190.83Z" style="fill:#FF4656;stroke:#263238;stroke-linecap:round;stroke-linejoin:round"></path></clipPath></defs><g id="freepik--Clouds--inject-66"><path d="M400.17,191.71c-4.93-2.69-7.17-.45-9-2.69s4.93-8.07-8.52-13.9c0,0-.89-12.55-19.27-13S350,174.68,345,177.81s-6.28-1.79-11.21,1.35-2.69,9.41-6.72,10.31-9.41-4-14.34-.9-4.93,5.83-7.18,5.83-6.72-1.79-9.41,0-5.83,4-5.83,4H403.76S405.11,194.4,400.17,191.71Z" style="fill:#FF4656"></path><path d="M400.17,191.71c-4.93-2.69-7.17-.45-9-2.69s4.93-8.07-8.52-13.9c0,0-.89-12.55-19.27-13S350,174.68,345,177.81s-6.28-1.79-11.21,1.35-2.69,9.41-6.72,10.31-9.41-4-14.34-.9-4.93,5.83-7.18,5.83-6.72-1.79-9.41,0-5.83,4-5.83,4H403.76S405.11,194.4,400.17,191.71Z" style="fill:#FF4656;opacity:0.5"></path><path d="M228.47,134.37c-2.92-1.59-4.25-.26-5.31-1.59s2.92-4.78-5-8.24c0,0-.53-7.44-11.42-7.7s-8,7.44-10.89,9.3-3.72-1.06-6.65.79-1.59,5.58-4,6.12-5.58-2.4-8.5-.54-2.92,3.46-4.25,3.46-4-1.07-5.58,0-3.45,2.39-3.45,2.39H230.6S231.4,136,228.47,134.37Z" style="fill:#FF4656"></path><path d="M228.47,134.37c-2.92-1.59-4.25-.26-5.31-1.59s2.92-4.78-5-8.24c0,0-.53-7.44-11.42-7.7s-8,7.44-10.89,9.3-3.72-1.06-6.65.79-1.59,5.58-4,6.12-5.58-2.4-8.5-.54-2.92,3.46-4.25,3.46-4-1.07-5.58,0-3.45,2.39-3.45,2.39H230.6S231.4,136,228.47,134.37Z" style="fill:#FF4656;opacity:0.5"></path><path d="M269.44,355.9c-8.4-4.59-12.22-.77-15.28-4.59s8.4-13.74-14.51-23.67c0,0-1.53-21.39-32.84-22.15s-22.92,21.38-31.32,26.73-10.69-3.06-19.09,2.29-4.59,16-11.46,17.57-16-6.88-24.44-1.53-8.4,9.93-12.22,9.93-11.46-3.06-16,0-9.93,6.87-9.93,6.87H275.55S277.84,360.48,269.44,355.9Z" style="fill:#FF4656"></path><path d="M269.44,355.9c-8.4-4.59-12.22-.77-15.28-4.59s8.4-13.74-14.51-23.67c0,0-1.53-21.39-32.84-22.15s-22.92,21.38-31.32,26.73-10.69-3.06-19.09,2.29-4.59,16-11.46,17.57-16-6.88-24.44-1.53-8.4,9.93-12.22,9.93-11.46-3.06-16,0-9.93,6.87-9.93,6.87H275.55S277.84,360.48,269.44,355.9Z" style="fill:#FF4656;opacity:0.5"></path><g style="opacity:0.5"><path d="M400.17,191.71c-4.93-2.69-7.17-.45-9-2.69s4.93-8.07-8.52-13.9c0,0-.89-12.55-19.27-13S350,174.68,345,177.81s-6.28-1.79-11.21,1.35-2.69,9.41-6.72,10.31-9.41-4-14.34-.9-4.93,5.83-7.18,5.83-6.72-1.79-9.41,0-5.83,4-5.83,4H403.76S405.11,194.4,400.17,191.71Z" style="fill:#fff"></path><path d="M400.17,191.71c-4.93-2.69-7.17-.45-9-2.69s4.93-8.07-8.52-13.9c0,0-.89-12.55-19.27-13S350,174.68,345,177.81s-6.28-1.79-11.21,1.35-2.69,9.41-6.72,10.31-9.41-4-14.34-.9-4.93,5.83-7.18,5.83-6.72-1.79-9.41,0-5.83,4-5.83,4H403.76S405.11,194.4,400.17,191.71Z" style="fill:#fff;opacity:0.5"></path></g><g style="opacity:0.5"><path d="M228.47,134.37c-2.92-1.59-4.25-.26-5.31-1.59s2.92-4.78-5-8.24c0,0-.53-7.44-11.42-7.7s-8,7.44-10.89,9.3-3.72-1.06-6.65.79-1.59,5.58-4,6.12-5.58-2.4-8.5-.54-2.92,3.46-4.25,3.46-4-1.07-5.58,0-3.45,2.39-3.45,2.39H230.6S231.4,136,228.47,134.37Z" style="fill:#fff"></path><path d="M228.47,134.37c-2.92-1.59-4.25-.26-5.31-1.59s2.92-4.78-5-8.24c0,0-.53-7.44-11.42-7.7s-8,7.44-10.89,9.3-3.72-1.06-6.65.79-1.59,5.58-4,6.12-5.58-2.4-8.5-.54-2.92,3.46-4.25,3.46-4-1.07-5.58,0-3.45,2.39-3.45,2.39H230.6S231.4,136,228.47,134.37Z" style="fill:#fff;opacity:0.5"></path></g><g style="opacity:0.5"><path d="M269.44,355.9c-8.4-4.59-12.22-.77-15.28-4.59s8.4-13.74-14.51-23.67c0,0-1.53-21.39-32.84-22.15s-22.92,21.38-31.32,26.73-10.69-3.06-19.09,2.29-4.59,16-11.46,17.57-16-6.88-24.44-1.53-8.4,9.93-12.22,9.93-11.46-3.06-16,0-9.93,6.87-9.93,6.87H275.55S277.84,360.48,269.44,355.9Z" style="fill:#fff"></path><path d="M269.44,355.9c-8.4-4.59-12.22-.77-15.28-4.59s8.4-13.74-14.51-23.67c0,0-1.53-21.39-32.84-22.15s-22.92,21.38-31.32,26.73-10.69-3.06-19.09,2.29-4.59,16-11.46,17.57-16-6.88-24.44-1.53-8.4,9.93-12.22,9.93-11.46-3.06-16,0-9.93,6.87-9.93,6.87H275.55S277.84,360.48,269.44,355.9Z" style="fill:#fff;opacity:0.5"></path></g></g><g id="freepik--Books--inject-66"><path d="M128.27,323.33s-4.94-4.33-10.05-5.81-11-1.51-16.09-2.9S94,312.06,94,312.06l-.26,4.6,34.32,9.27,23.48-6.5,2.34-4.77a38,38,0,0,1-8,2.69c-5.11,1.21-10.83,1.21-14,2.43S128.27,323.33,128.27,323.33Z" style="fill:#fff;stroke:#263238;stroke-linecap:round;stroke-linejoin:round"></path><path d="M93.26,313.1a119.21,119.21,0,0,0,20.55,4.35,31.38,31.38,0,0,1,14.46,5.88,23.26,23.26,0,0,1,11.53-3.64,59,59,0,0,0,14.47-2.95l-1.47,3-25.22,4.94-34.84-9.1Z" style="fill:#fff;stroke:#263238;stroke-linecap:round;stroke-linejoin:round"></path><path d="M92.31,314.14a62.43,62.43,0,0,0,16.6,3.87c9.28.7,19.1,5.32,19.1,5.32a29.27,29.27,0,0,1,12.22-3.12,56.87,56.87,0,0,0,14.13-1.91,3.39,3.39,0,0,0,.43,2.86l-26.87,5.72-35.79-10.4Z" style="fill:#fff;stroke:#263238;stroke-linecap:round;stroke-linejoin:round"></path><path d="M91.87,316.05l34.93,8.75V326l2.94.08v-1.38l25.83-4.08s1.13-.26.17,1-17.59,15.78-17.59,15.78l-18.46,1.9-28-6.15Z" style="fill:#FF4656"></path><g style="clip-path:url(#freepik--clip-path--inject-66)"><polygon points="126.8 326.02 126.8 324.8 91.87 316.05 91.7 333.21 119.69 339.36 120.19 339.31 127.58 326.04 126.8 326.02" style="opacity:0.30000000000000004"></polygon></g><path d="M91.87,316.05l34.93,8.75V326l2.94.08v-1.38l25.83-4.08s1.13-.26.17,1-17.59,15.78-17.59,15.78l-18.46,1.9-28-6.15Z" style="fill:none;stroke:#263238;stroke-linecap:round;stroke-linejoin:round"></path><polygon points="126.8 326.02 119.08 339.36 120.56 339.45 129.74 326.1 126.8 326.02" style="fill:#FF4656;stroke:#263238;stroke-linecap:round;stroke-linejoin:round"></polygon><path d="M125.56,407.35s-1.68,3.52-3.92,5.13-5.1,2.37-7.36,3.92a36.29,36.29,0,0,0-3.52,2.71l-.9-3.06L125,405.62l12.55,1.52,1.94,2.92a16.38,16.38,0,0,0-4.34-.84c-2.69-.19-5.48.51-7.25.08A3.56,3.56,0,0,1,125.56,407.35Z" style="fill:#fff;stroke:#263238;stroke-linecap:round;stroke-linejoin:round"></path><path d="M110.21,418.5a46.53,46.53,0,0,1,9.29-5.43,14.15,14.15,0,0,0,6.06-5.72,10,10,0,0,0,6.24,1,22.87,22.87,0,0,1,7.55.22l-1.23-1.87L125,406.5l-15.46,10.37Z" style="fill:#fff;stroke:#263238;stroke-linecap:round;stroke-linejoin:round"></path><path d="M109.57,417.92a24.8,24.8,0,0,1,7.45-4.63c4.4-1.6,8.42-5.91,8.42-5.91a11.83,11.83,0,0,0,6.48.61,21.29,21.29,0,0,1,7.21-.43,3.21,3.21,0,0,1-.27-2L124.8,405l-15.71,11.37Z" style="fill:#fff;stroke:#263238;stroke-linecap:round;stroke-linejoin:round"></path><path d="M109,416.69l15.56-10.16-.21-.81,1.43-.42.23.93,13.28-.4s.59,0-.09-.72S128,396.62,128,396.62l-9.33,1-12.62,7.55Z" style="fill:#FF4656"></path><g style="clip-path:url(#freepik--clip-path-2--inject-66)"><polygon points="124.39 405.72 124.6 406.53 109.04 416.69 106.06 405.14 118.68 397.59 118.93 397.56 124.77 405.61 124.39 405.72" style="opacity:0.30000000000000004"></polygon></g><path d="M109,416.69l15.56-10.16-.21-.81,1.43-.42.23.93,13.28-.4s.59,0-.09-.72S128,396.62,128,396.62l-9.33,1-12.62,7.55Z" style="fill:none;stroke:#263238;stroke-linecap:round;stroke-linejoin:round"></path><polygon points="124.39 405.72 118.39 397.66 119.09 397.42 125.82 405.3 124.39 405.72" style="fill:#FF4656;stroke:#263238;stroke-linecap:round;stroke-linejoin:round"></polygon><polygon points="358.22 299.71 386.46 328.31 326.16 345.3 322.17 316.63 358.22 299.71" style="fill:#FF4656;stroke:#263238;stroke-linecap:round;stroke-linejoin:round"></polygon><polygon points="383.21 332.44 320.84 350.77 325.87 317.81 357.34 303.77 383.21 332.44" style="fill:#fff;stroke:#263238;stroke-linecap:round;stroke-linejoin:round"></polygon><polygon points="358.82 305.55 382.02 335.55 323.5 352.54 330.3 316.48 358.82 305.55" style="fill:#fff"></polygon><g style="clip-path:url(#freepik--clip-path-3--inject-66)"><polygon points="358.82 305.55 382.02 335.55 323.5 352.54 330.3 316.48 358.82 305.55" style="opacity:0.17"></polygon></g><polygon points="358.82 305.55 382.02 335.55 323.5 352.54 330.3 316.48 358.82 305.55" style="fill:none;stroke:#263238;stroke-linecap:round;stroke-linejoin:round"></polygon><polygon points="358.82 305.55 348.18 342.49 306.65 355.06 322.61 321.06 358.82 305.55" style="fill:#fff;stroke:#263238;stroke-linecap:round;stroke-linejoin:round"></polygon><polygon points="345.23 339.54 305.18 352.99 303.99 347.37 341.09 334.07 345.23 339.54" style="fill:#fff;stroke:#263238;stroke-linecap:round;stroke-linejoin:round"></polygon><polygon points="357.79 300.52 384.39 328.16 383.21 332.44 358.82 305.55 345.23 339.54 341.09 334.07 357.79 300.52" style="fill:#fff;stroke:#263238;stroke-linecap:round;stroke-linejoin:round"></polygon><polygon points="358.22 299.71 341.24 335.11 302.07 348.41 322.17 316.63 358.22 299.71" style="fill:#FF4656"></polygon><g style="clip-path:url(#freepik--clip-path-4--inject-66)"><polygon points="358.22 299.71 341.24 335.11 302.07 348.41 322.17 316.63 358.22 299.71" style="opacity:0.30000000000000004"></polygon></g><polygon points="358.22 299.71 341.24 335.11 302.07 348.41 322.17 316.63 358.22 299.71" style="fill:none;stroke:#263238;stroke-linecap:round;stroke-linejoin:round"></polygon><line x1="320.55" y1="319.89" x2="352.06" y2="305.51" style="fill:none;stroke:#263238;stroke-linecap:round;stroke-linejoin:round"></line><polygon points="227.02 402.48 255.94 366.9 196.28 364.1 191.53 393.99 227.02 402.48" style="fill:#FF4656;stroke:#263238;stroke-linecap:round;stroke-linejoin:round"></polygon><polygon points="252.81 363.5 191.12 359.85 195.24 391.92 226.25 398.6 252.81 363.5" style="fill:#fff;stroke:#263238;stroke-linecap:round;stroke-linejoin:round"></polygon><polygon points="227.77 396.45 251.71 360.64 193.82 357.42 199.63 392.2 227.77 396.45" style="fill:#fff"></polygon><g style="clip-path:url(#freepik--clip-path-5--inject-66)"><polygon points="227.77 396.45 251.71 360.64 193.82 357.42 199.63 392.2 227.77 396.45" style="opacity:0.17"></polygon></g><polygon points="227.77 396.45 251.71 360.64 193.82 357.42 199.63 392.2 227.77 396.45" style="fill:none;stroke:#263238;stroke-linecap:round;stroke-linejoin:round"></polygon><polygon points="227.77 396.45 218.16 361.69 177.09 358.9 192.09 389.41 227.77 396.45" style="fill:#fff;stroke:#263238;stroke-linecap:round;stroke-linejoin:round"></polygon><polygon points="215.13 365.38 175.56 361.34 174.23 367.29 210.86 371.88 215.13 365.38" style="fill:#fff;stroke:#263238;stroke-linecap:round;stroke-linejoin:round"></polygon><polygon points="226.6 401.77 253.87 367.54 252.81 363.5 227.77 396.45 215.13 365.38 210.86 371.88 226.6 401.77" style="fill:#fff;stroke:#263238;stroke-linecap:round;stroke-linejoin:round"></polygon><polygon points="227.02 402.48 211.03 370.8 172.34 366.7 191.53 393.99 227.02 402.48" style="fill:#FF4656"></polygon><g style="clip-path:url(#freepik--clip-path-6--inject-66)"><polygon points="227.02 402.48 211.03 370.8 172.34 366.7 191.53 393.99 227.02 402.48" style="opacity:0.30000000000000004"></polygon></g><polygon points="227.02 402.48 211.03 370.8 172.34 366.7 191.53 393.99 227.02 402.48" style="fill:none;stroke:#263238;stroke-linecap:round;stroke-linejoin:round"></polygon><line x1="188.58" y1="390.05" x2="220.09" y2="396.68" style="fill:none;stroke:#263238;stroke-linecap:round;stroke-linejoin:round"></line></g><g id="freepik--Character--inject-66"><path d="M250.47,163.23s-13.1,6.33-18.34,14-3.71,21.83,4.36,26.41,36.24,21.4,56.11,19,16.81-22.71,6.77-30.79-23.58-15.28-23.58-15.28-.65-4.36-1.53-5.89S263.35,159.3,250.47,163.23Z" style="fill:#263238;stroke:#263238;stroke-linecap:round;stroke-linejoin:round"></path><path d="M303.65,196.63c-29.74-9.1-49.33,7.19-55.47,13.43,12.3,6.39,30.42,14.24,44.42,12.55C309.22,220.6,309.79,206.05,303.65,196.63Z" style="fill:#fff;stroke:#263238;stroke-linecap:round;stroke-linejoin:round"></path><path d="M283.43,194.23s17.47,14,11.35,27.94" style="fill:none;stroke:#263238;stroke-linecap:round;stroke-linejoin:round"></path><path d="M226.09,157.13l-7,32.65h5.63l13.88-25.73S235.89,155.8,226.09,157.13Z" style="fill:#fff;stroke:#263238;stroke-linecap:round;stroke-linejoin:round"></path><path d="M314.07,141.29c-5.73-7-13.3-13.49-27.17-14.6,0,0-11.82-.37-27.9,6.47-12.57,5.34-26,17-32.91,24,6.18,1.57,9.86,4.1,12.52,6.92,2.74-2.61,5.13-4.88,6.89-6.31,5.92-4.81,14.61-8.87,14.61-8.87s-9.43,12.93-11.28,16.26-.55,8.69,9.24,10.17,12.2-.37,16.08-2.59,8.69-4.25,10.54-4.25a15.59,15.59,0,0,0,10.35-3c4.8-3.33,6.84-12.75,8.5-13.49,1.14-.51,11.23,12.65,19.09,22.53l.68-.35c3.42-1.76,6.09-5.35,7.92-8.51C324.87,156.38,317.78,145.83,314.07,141.29Z" style="fill:#FF4656;stroke:#263238;stroke-linecap:round;stroke-linejoin:round"></path><path d="M280.94,132.9s-3.92,9.43,3.93,13" style="fill:none;stroke:#263238;stroke-linecap:round;stroke-linejoin:round"></path><line x1="260.11" y1="148.87" x2="268.63" y2="146.35" style="fill:none;stroke:#263238;stroke-linecap:round;stroke-linejoin:round"></line><path d="M260,165.32s5.37,4.74,17.94-.62" style="fill:none;stroke:#263238;stroke-linecap:round;stroke-linejoin:round"></path><path d="M309.05,148.41c-3.1.41-5.51,3.6-5.51,3.6a62.2,62.2,0,0,1,10.87-1.33" style="fill:none;stroke:#263238;stroke-linecap:round;stroke-linejoin:round"></path><path d="M260.39,149.65s5.77,0,11.34-.21" style="fill:none;stroke:#263238;stroke-linecap:round;stroke-linejoin:round"></path><path d="M263.48,162.84s.62,3.72,8.66,3.3" style="fill:none;stroke:#263238;stroke-linecap:round;stroke-linejoin:round"></path><path d="M284.87,129.83s-1.29,6.65-.37,10.16,4.25,7.58,6.66,3.33,3.69-9,3.69-11.27S286.53,125.58,284.87,129.83Z" style="fill:#fff;stroke:#263238;stroke-linecap:round;stroke-linejoin:round"></path><path d="M303.54,121.51s5.17-1.11,9.61-6.84-1.29-6.46-3.14-12,4.66-3.7-4.76-13.31-24.77-6.28-32-3.14-7,13.68-12.19,14.42-7.4-4.25-13.68-4.25-12.94,6.65-10.35,12.19,7.58,3.15,7.95,2.22-2.59.19-2.78-2.59,6.65-1.29,8.69,2.41c1.65,3-1.38,7.26-1.28,10.41.21,6.32,7.95,10.36,12.92,11.23,6.71,1.17,14.87.76,20.95-2.57,7.47-4.1,4-12.6,9.5-14.82s8.32,1.11,8.32,1.11Z" style="fill:#263238;stroke:#263238;stroke-linecap:round;stroke-linejoin:round"></path><path d="M247.05,99.82a5.65,5.65,0,0,0-5.83.81" style="fill:none;stroke:#fff;stroke-linecap:round;stroke-linejoin:round"></path><path d="M296.37,105s0-11-7.72-13.24-16.54,7.72-21,14-11,4.78-15.81-1.84a15,15,0,0,0-1.5-1.8" style="fill:none;stroke:#fff;stroke-linecap:round;stroke-linejoin:round"></path><path d="M252.62,125.63c4,2.57,7,3.31,12.87,1.47s5.15-11.4,10.29-16.54,14.34-3.31,14.34-3.31-10.29-5.52-18.38.36-7.36,15.81-14.71,17.65" style="fill:none;stroke:#fff;stroke-linecap:round;stroke-linejoin:round"></path><path d="M301.52,106.14s7-1.84,6.62-8.09" style="fill:none;stroke:#fff;stroke-linecap:round;stroke-linejoin:round"></path><path d="M243.92,177s19,2.4,28.6,9" style="fill:none;stroke:#fff;stroke-linecap:round;stroke-linejoin:round"></path><path d="M297.51,108.52a6.42,6.42,0,0,0-6.65,2c-3.14,3.32-3,5-5.62,7.07a4.72,4.72,0,0,1-5.73.37c-1.11-.55-2.4-.18-2.77,2.4s3.14,4.62,3.7,4.62a14,14,0,0,1,1.66.19s0,4.62,3.14,7.39,9.43,7.21,13.68,6.29,5.91-10.72,5.91-15.71a45.59,45.59,0,0,0-2.95-14.79C300.58,105.43,297.51,108.52,297.51,108.52Z" style="fill:#fff;stroke:#263238;stroke-linecap:round;stroke-linejoin:round"></path><path d="M294,119.75c0,1-.36,1.86-.82,1.86s-.83-.83-.83-1.86.37-1.85.83-1.85S294,118.73,294,119.75Z" style="fill:#263238"></path><path d="M300.59,119.13c0,1-.37,1.86-.82,1.86s-.83-.83-.83-1.86.37-1.85.83-1.85S300.59,118.11,300.59,119.13Z" style="fill:#263238"></path><path d="M290.08,116s1.23-1.85,4.33-1" style="fill:none;stroke:#263238;stroke-linecap:round;stroke-linejoin:round"></path><path d="M297.91,115s2.06-2.27,3.92,0" style="fill:none;stroke:#263238;stroke-linecap:round;stroke-linejoin:round"></path><path d="M297.71,119.13s.2,4.13,1.44,4.13.82,1.85-.83,2.47" style="fill:none;stroke:#263238;stroke-linecap:round;stroke-linejoin:round"></path><path d="M296.67,129.86s-3.71,1.65-5.15-2.07" style="fill:none;stroke:#263238;stroke-linecap:round;stroke-linejoin:round"></path><path d="M297.54,221.14s-21-18.42-42.76-24.69-46.8-3.32-68.55-9.21-34.27-14-34.27-14l-1.11,19.53,146,39.44,99.88-27.64,9.95-20.27s-12.16,6.26-33.91,11.42S326.65,200.87,313,206,297.54,221.14,297.54,221.14Z" style="fill:#fff;stroke:#263238;stroke-linecap:round;stroke-linejoin:round"></path><path d="M148.64,177.65S173,192.4,227.88,197.56c36.15,3.39,69.66,23.58,69.66,23.58a98.88,98.88,0,0,1,49-15.48c28.75-1.1,61.55-12.53,61.55-12.53L401.84,206,294.59,227l-148.16-38.7Z" style="fill:#fff;stroke:#263238;stroke-linecap:round;stroke-linejoin:round"></path><path d="M144.59,182.08A198.13,198.13,0,0,0,210.19,199c39.43,2.95,86.24,22.11,86.24,22.11s24.69-13.26,52-13.26a241.81,241.81,0,0,0,60.07-8.11,14.41,14.41,0,0,0,1.84,12.16L296.06,236.25,143.85,192Z" style="fill:#fff;stroke:#263238;stroke-linecap:round;stroke-linejoin:round"></path><path d="M145.33,190.83l145.94,36.58v5.16l12.53.37V227l109.83-17.32s4.79-1.11.74,4.42-74.82,67.08-74.82,67.08l-78.5,8.11L142,263.16l.71-70.31A2.1,2.1,0,0,1,145.33,190.83Z" style="fill:#FF4656"></path><g style="clip-path:url(#freepik--clip-path-7--inject-66)"><polygon points="291.27 232.57 291.27 227.41 142.74 190.19 142.01 263.16 261.05 289.33 263.18 289.11 294.6 232.67 291.27 232.57" style="opacity:0.30000000000000004"></polygon></g><path d="M145.33,190.83l145.94,36.58v5.16l12.53.37V227l109.83-17.32s4.79-1.11.74,4.42-74.82,67.08-74.82,67.08l-78.5,8.11L142,263.16l.71-70.31A2.1,2.1,0,0,1,145.33,190.83Z" style="fill:none;stroke:#263238;stroke-linecap:round;stroke-linejoin:round"></path><polygon points="291.27 232.57 258.47 289.33 264.74 289.69 303.8 232.94 291.27 232.57" style="fill:#FF4656;stroke:#263238;stroke-linecap:round;stroke-linejoin:round"></polygon><path d="M400.74,212s9.79,1.83,7.75,8.36l5.88-6.24s2.69-3.35,1.46-4S400.74,212,400.74,212Z" style="fill:#263238"></path><path d="M158.86,194.54s-13.85,3.83-16,14.18l-.12-15.87s.42-2.39,2.61-2S158.86,194.54,158.86,194.54Z" style="fill:#263238"></path><polygon points="142.14 258.3 149.1 264.93 142.01 263.16 142.14 258.3" style="fill:#263238"></polygon><polygon points="334.54 281.65 343.98 277.01 339.01 281.32 334.54 281.65" style="fill:#263238"></polygon><path d="M331.23,165.68l26.56,31.84-6.69,1.06-28.47-24S330,169.75,331.23,165.68Z" style="fill:#fff;stroke:#263238;stroke-linecap:round;stroke-linejoin:round"></path><path d="M213.45,186.86s-1.33-1.61-1.67-.17-3.35,6.44-1,6.79,3.68-5.36,3.68-5.36Z" style="fill:#fff;stroke:#263238;stroke-linecap:round;stroke-linejoin:round"></path><path d="M216.63,186.67s-1.34-1.61-1.67-.18-3.35,6.44-1,6.8,3.69-5.37,3.69-5.37Z" style="fill:#fff;stroke:#263238;stroke-linecap:round;stroke-linejoin:round"></path><path d="M219.82,186.55s-1.59-1.79-2-.2-4,7.15-1.19,7.55,4.37-6,4.37-6Z" style="fill:#fff;stroke:#263238;stroke-linecap:round;stroke-linejoin:round"></path><polygon points="222.6 187.15 227.96 192.31 221.61 192.31 222.6 187.15" style="fill:#fff;stroke:#263238;stroke-linecap:round;stroke-linejoin:round"></polygon><path d="M222.6,187.15s-1.59-1.79-2-.2-4,7.15-1.19,7.54,4.37-6,4.37-6Z" style="fill:#fff;stroke:#263238;stroke-linecap:round;stroke-linejoin:round"></path><path d="M365,191.78s1.07-1.8,1.63-.44,4.31,5.84,2.06,6.56-4.48-4.72-4.48-4.72Z" style="fill:#fff;stroke:#263238;stroke-linecap:round;stroke-linejoin:round"></path><path d="M361.86,192.08s1.07-1.8,1.63-.44,4.32,5.84,2.06,6.56-4.48-4.72-4.48-4.72Z" style="fill:#fff;stroke:#263238;stroke-linecap:round;stroke-linejoin:round"></path><path d="M358.7,192.47s1.29-2,1.93-.51,5,6.44,2.36,7.27-5.25-5.2-5.25-5.2Z" style="fill:#fff;stroke:#263238;stroke-linecap:round;stroke-linejoin:round"></path><polygon points="356.05 193.5 351.56 199.44 357.84 198.44 356.05 193.5" style="fill:#fff;stroke:#263238;stroke-linecap:round;stroke-linejoin:round"></polygon><path d="M356.05,193.5s1.28-2,1.93-.51,5,6.43,2.36,7.26-5.25-5.19-5.25-5.19Z" style="fill:#fff;stroke:#263238;stroke-linecap:round;stroke-linejoin:round"></path></g><g id="freepik--Sparkles--inject-66"><path d="M173.87,246.91l6.4-1-6.4-1a2.67,2.67,0,0,1-2.24-2.24l-1-6.41-1,6.41a2.67,2.67,0,0,1-2.23,2.24l-6.41,1,6.41,1a2.7,2.7,0,0,1,2.23,2.24l1,6.41,1-6.41A2.7,2.7,0,0,1,173.87,246.91Z" style="fill:#fff"></path><path d="M126.06,290.33l6.41-1-6.41-1a2.71,2.71,0,0,1-2.24-2.24l-1-6.41-1,6.41a2.68,2.68,0,0,1-2.24,2.24l-6.41,1,6.41,1a2.68,2.68,0,0,1,2.24,2.24l1,6.41,1-6.41A2.71,2.71,0,0,1,126.06,290.33Z" style="fill:#FF4656"></path><path d="M126.06,290.33l6.41-1-6.41-1a2.71,2.71,0,0,1-2.24-2.24l-1-6.41-1,6.41a2.68,2.68,0,0,1-2.24,2.24l-6.41,1,6.41,1a2.68,2.68,0,0,1,2.24,2.24l1,6.41,1-6.41A2.71,2.71,0,0,1,126.06,290.33Z" style="fill:#fff;opacity:0.5"></path><path d="M285.66,317.06l6.41-1-6.41-1a2.68,2.68,0,0,1-2.24-2.23l-1-6.41-1,6.41a2.68,2.68,0,0,1-2.24,2.23l-6.41,1,6.41,1a2.68,2.68,0,0,1,2.24,2.23l1,6.41,1-6.41A2.68,2.68,0,0,1,285.66,317.06Z" style="fill:#FF4656"></path><path d="M285.66,317.06l6.41-1-6.41-1a2.68,2.68,0,0,1-2.24-2.23l-1-6.41-1,6.41a2.68,2.68,0,0,1-2.24,2.23l-6.41,1,6.41,1a2.68,2.68,0,0,1,2.24,2.23l1,6.41,1-6.41A2.68,2.68,0,0,1,285.66,317.06Z" style="fill:#fff;opacity:0.5"></path><path d="M117.86,256.23l4.24-.67-4.24-.67a1.77,1.77,0,0,1-1.48-1.48l-.66-4.23-.67,4.23a1.77,1.77,0,0,1-1.48,1.48l-4.24.67,4.24.67a1.77,1.77,0,0,1,1.48,1.48l.67,4.23.66-4.23A1.77,1.77,0,0,1,117.86,256.23Z" style="fill:#FF4656"></path><path d="M117.86,256.23l4.24-.67-4.24-.67a1.77,1.77,0,0,1-1.48-1.48l-.66-4.23-.67,4.23a1.77,1.77,0,0,1-1.48,1.48l-4.24.67,4.24.67a1.77,1.77,0,0,1,1.48,1.48l.67,4.23.66-4.23A1.77,1.77,0,0,1,117.86,256.23Z" style="fill:#fff;opacity:0.5"></path><path d="M392.92,265.59l4.24-.66-4.24-.67a1.78,1.78,0,0,1-1.48-1.48l-.67-4.24-.66,4.24a1.78,1.78,0,0,1-1.48,1.48l-4.24.67,4.24.66a1.78,1.78,0,0,1,1.48,1.48l.66,4.24.67-4.24A1.78,1.78,0,0,1,392.92,265.59Z" style="fill:#FF4656"></path><path d="M392.92,265.59l4.24-.66-4.24-.67a1.78,1.78,0,0,1-1.48-1.48l-.67-4.24-.66,4.24a1.78,1.78,0,0,1-1.48,1.48l-4.24.67,4.24.66a1.78,1.78,0,0,1,1.48,1.48l.66,4.24.67-4.24A1.78,1.78,0,0,1,392.92,265.59Z" style="fill:#fff;opacity:0.5"></path><path d="M199.15,230.35l4.15-.65-4.15-.65a1.74,1.74,0,0,1-1.45-1.45l-.66-4.16-.65,4.16a1.75,1.75,0,0,1-1.45,1.45l-4.16.65,4.16.65a1.75,1.75,0,0,1,1.45,1.45L197,236l.66-4.16A1.74,1.74,0,0,1,199.15,230.35Z" style="fill:#fff"></path><path d="M336.64,271.41l4.16-.66-4.16-.65a1.75,1.75,0,0,1-1.45-1.45l-.65-4.16-.65,4.16a1.75,1.75,0,0,1-1.45,1.45l-4.16.65,4.16.66a1.74,1.74,0,0,1,1.45,1.45l.65,4.15.65-4.15A1.74,1.74,0,0,1,336.64,271.41Z" style="fill:#fff"></path></g></svg>